<svg width="48" height="48" viewBox="0 0 48 48" fill="none" xmlns="http://www.w3.org/2000/svg">
<path d="M42 30.079V9C42 6.93237 40.3176 5.25 38.25 5.25H36.75V3.75C36.75 2.50927 35.7407 1.5 34.5 1.5C33.2593 1.5 32.25 2.50927 32.25 3.75V5.25H28.5V3.75C28.5 2.50927 27.4907 1.5 26.25 1.5C25.0093 1.5 24 2.50927 24 3.75V5.25H19.5V3.75C19.5 2.50927 18.4907 1.5 17.25 1.5C16.0093 1.5 15 2.50927 15 3.75V5.25H11.25V3.75C11.25 2.50927 10.2407 1.5 9 1.5C7.75927 1.5 6.75 2.50927 6.75 3.75V5.25H5.25C3.18237 5.25 1.5 6.93237 1.5 9V39C1.5 41.0676 3.18237 42.75 5.25 42.75H30.4676C32.0266 45.4356 34.9272 47.25 38.25 47.25C43.2129 47.25 47.25 43.2129 47.25 38.25C47.25 34.6264 45.0933 31.5044 42 30.079ZM33.75 3.75C33.75 3.33618 34.0862 3 34.5 3C34.9138 3 35.25 3.33618 35.25 3.75V8.25C35.25 8.66382 34.9138 9 34.5 9C34.0862 9 33.75 8.66382 33.75 8.25V3.75ZM25.5 3.75C25.5 3.33618 25.8362 3 26.25 3C26.6638 3 27 3.33618 27 3.75V8.25C27 8.66382 26.6638 9 26.25 9C25.8362 9 25.5 8.66382 25.5 8.25V3.75ZM16.5 3.75C16.5 3.33618 16.8362 3 17.25 3C17.6638 3 18 3.33618 18 3.75V8.25C18 8.66382 17.6638 9 17.25 9C16.8362 9 16.5 8.66382 16.5 8.25V3.75ZM8.25 3.75C8.25 3.33618 8.58618 3 9 3C9.41382 3 9.75 3.33618 9.75 3.75V8.25C9.75 8.66382 9.41382 9 9 9C8.58618 9 8.25 8.66382 8.25 8.25V3.75ZM5.25 6.75H6.75V8.25C6.75 9.49073 7.75927 10.5 9 10.5C10.2407 10.5 11.25 9.49073 11.25 8.25V6.75H15V8.25C15 9.49073 16.0093 10.5 17.25 10.5C18.4907 10.5 19.5 9.49073 19.5 8.25V6.75H24V8.25C24 9.49073 25.0093 10.5 26.25 10.5C27.4907 10.5 28.5 9.49073 28.5 8.25V6.75H32.25V8.25C32.25 9.49073 33.2593 10.5 34.5 10.5C35.7407 10.5 36.75 9.49073 36.75 8.25V6.75H38.25C39.4907 6.75 40.5 7.75927 40.5 9V12.75H3V9C3 7.75927 4.00927 6.75 5.25 6.75ZM5.25 41.25C4.00927 41.25 3 40.2407 3 39V14.25H40.5V29.5461C39.7794 29.3596 39.0282 29.25 38.25 29.25C37.7379 29.25 37.2389 29.3029 36.75 29.3854V25.5C36.75 25.0855 36.4145 24.75 36 24.75H31.5C31.0855 24.75 30.75 25.0855 30.75 25.5V30C30.75 30.4145 31.0855 30.75 31.5 30.75H33.2856C30.8563 32.3633 29.25 35.1213 29.25 38.25C29.25 39.3031 29.4412 40.31 29.775 41.25H5.25ZM35.25 29.25H32.25V26.25H35.25V29.25ZM38.25 45.75C34.1147 45.75 30.75 42.3853 30.75 38.25C30.75 34.1147 34.1147 30.75 38.25 30.75C42.3853 30.75 45.75 34.1147 45.75 38.25C45.75 42.3853 42.3853 45.75 38.25 45.75Z" fill="white"/>
<path d="M39 36.9581V32.25H37.5V36.9581C37.0535 37.2179 36.75 37.6961 36.75 38.25C36.75 38.3259 36.7614 38.3988 36.7723 38.4716L34.0312 40.6641L34.9688 41.8359L37.7075 39.6449C37.8761 39.7106 38.0581 39.75 38.25 39.75C39.0784 39.75 39.75 39.0784 39.75 38.25C39.75 37.6962 39.4465 37.2179 39 36.9581Z" fill="white"/>
<path d="M11.25 16.5H6.75C6.33545 16.5 6 16.8355 6 17.25V21.75C6 22.1645 6.33545 22.5 6.75 22.5H11.25C11.6645 22.5 12 22.1645 12 21.75V17.25C12 16.8355 11.6645 16.5 11.25 16.5ZM10.5 21H7.5V18H10.5V21Z" fill="white"/>
<path d="M19.5 16.5H15C14.5855 16.5 14.25 16.8355 14.25 17.25V21.75C14.25 22.1645 14.5855 22.5 15 22.5H19.5C19.9145 22.5 20.25 22.1645 20.25 21.75V17.25C20.25 16.8355 19.9145 16.5 19.5 16.5ZM18.75 21H15.75V18H18.75V21Z" fill="white"/>
<path d="M27.75 16.5H23.25C22.8355 16.5 22.5 16.8355 22.5 17.25V21.75C22.5 22.1645 22.8355 22.5 23.25 22.5H27.75C28.1645 22.5 28.5 22.1645 28.5 21.75V17.25C28.5 16.8355 28.1645 16.5 27.75 16.5ZM27 21H24V18H27V21Z" fill="white"/>
<path d="M31.5 22.5H36C36.4145 22.5 36.75 22.1645 36.75 21.75V17.25C36.75 16.8355 36.4145 16.5 36 16.5H31.5C31.0855 16.5 30.75 16.8355 30.75 17.25V21.75C30.75 22.1645 31.0855 22.5 31.5 22.5ZM32.25 18H35.25V21H32.25V18Z" fill="white"/>
<path d="M11.25 24.75H6.75C6.33545 24.75 6 25.0855 6 25.5V30C6 30.4145 6.33545 30.75 6.75 30.75H11.25C11.6645 30.75 12 30.4145 12 30V25.5C12 25.0855 11.6645 24.75 11.25 24.75ZM10.5 29.25H7.5V26.25H10.5V29.25Z" fill="white"/>
<path d="M19.5 24.75H15C14.5855 24.75 14.25 25.0855 14.25 25.5V30C14.25 30.4145 14.5855 30.75 15 30.75H19.5C19.9145 30.75 20.25 30.4145 20.25 30V25.5C20.25 25.0855 19.9145 24.75 19.5 24.75ZM18.75 29.25H15.75V26.25H18.75V29.25Z" fill="white"/>
<path d="M27.75 24.75H23.25C22.8355 24.75 22.5 25.0855 22.5 25.5V30C22.5 30.4145 22.8355 30.75 23.25 30.75H27.75C28.1645 30.75 28.5 30.4145 28.5 30V25.5C28.5 25.0855 28.1645 24.75 27.75 24.75ZM27 29.25H24V26.25H27V29.25Z" fill="white"/>
<path d="M11.25 33H6.75C6.33545 33 6 33.3355 6 33.75V38.25C6 38.6645 6.33545 39 6.75 39H11.25C11.6645 39 12 38.6645 12 38.25V33.75C12 33.3355 11.6645 33 11.25 33ZM10.5 37.5H7.5V34.5H10.5V37.5Z" fill="white"/>
<path d="M19.5 33H15C14.5855 33 14.25 33.3355 14.25 33.75V38.25C14.25 38.6645 14.5855 39 15 39H19.5C19.9145 39 20.25 38.6645 20.25 38.25V33.75C20.25 33.3355 19.9145 33 19.5 33ZM18.75 37.5H15.75V34.5H18.75V37.5Z" fill="white"/>
<path d="M27.75 33H23.25C22.8355 33 22.5 33.3355 22.5 33.75V38.25C22.5 38.6645 22.8355 39 23.25 39H27.75C28.1645 39 28.5 38.6645 28.5 38.25V33.75C28.5 33.3355 28.1645 33 27.75 33ZM27 37.5H24V34.5H27V37.5Z" fill="white"/>
</svg>
