<svg width="48" height="48" viewBox="0 0 48 48" fill="none" xmlns="http://www.w3.org/2000/svg">
<path d="M24 14.1562C18.5722 14.1562 14.1562 18.5722 14.1562 24C14.1562 29.4278 18.5722 33.8438 24 33.8438C29.4278 33.8438 33.8438 29.4278 33.8438 24C33.8438 18.5722 29.4278 14.1562 24 14.1562ZM24 31.0312C20.123 31.0312 16.9688 27.877 16.9688 24C16.9688 20.123 20.123 16.9688 24 16.9688C27.877 16.9688 31.0312 20.123 31.0312 24C31.0312 27.877 27.877 31.0312 24 31.0312Z" fill="white"/>
<path d="M46.5938 2.8125C42.2841 2.8125 38.6191 5.62341 37.3343 9.50794C30.9091 3.58228 21.3579 2.63381 13.875 7.11141V4.27791C13.875 3.50128 13.2454 2.87166 12.4688 2.87166C11.6921 2.87166 11.0625 3.50128 11.0625 4.27791V14.1562H8.34375V4.27791C8.34375 3.50128 7.71413 2.87166 6.9375 2.87166C6.16087 2.87166 5.53125 3.50128 5.53125 4.27791V14.1562H2.8125V4.27791C2.8125 3.50128 2.18288 2.87166 1.40625 2.87166C0.629625 2.87166 0 3.50128 0 4.27791V15.5625C0 18.0546 1.32131 20.2431 3.29962 21.4665L2.40281 40.5016C2.28309 43.0454 4.30659 45.1875 6.87328 45.1875C9.44334 45.1875 11.4895 43.02 11.341 40.4538L11.2578 39.0145C20.1227 46.5532 33.5995 44.7704 40.2172 35.1696L39.792 40.6666C39.6074 43.0522 41.4975 45.0938 43.8898 45.0938C46.1562 45.0938 48 43.25 48 40.9836V4.21875C48 3.44212 47.3704 2.8125 46.5938 2.8125ZM3.05963 16.9688H10.8154C9.49912 20.5871 4.37438 20.5832 3.05963 16.9688ZM6.87319 42.375C5.92697 42.375 5.16731 41.5866 5.21222 40.634L6.06928 22.4437C6.61987 22.5128 7.04503 22.5109 7.48397 22.4765L8.53341 40.6162C8.58825 41.568 7.83403 42.375 6.87319 42.375ZM11.0129 34.7817L10.2534 21.6546C12.4093 20.4764 13.875 18.1875 13.875 15.5625V10.4937C20.9246 5.19075 31.0045 6.20297 36.8438 13.0481V26.7188C36.8438 27.4954 37.4734 28.125 38.25 28.125H40.3725C37.0268 41.5348 19.8104 45.3671 11.0129 34.7817ZM45.1875 40.9836C45.1875 41.6992 44.6054 42.2812 43.8898 42.2812C43.1373 42.2812 42.5374 41.6426 42.5961 40.8835L43.6833 26.8271C43.7464 26.0112 43.1008 25.3125 42.2812 25.3125H39.6562V12.5625C39.6562 9.21881 42.034 6.42 45.1875 5.76816V40.9836Z" fill="white"/>
</svg>
