<svg width="48" height="48" viewBox="0 0 48 48" fill="none" xmlns="http://www.w3.org/2000/svg">
<path d="M3.75 23.2503C3.74998 23.2834 3.75217 23.3166 3.75656 23.3495L6.58303 44.5476C6.65649 45.0875 6.92274 45.5825 7.33265 45.9414C7.74255 46.3003 8.26844 46.4988 8.81325 46.5003H40.5C41.0965 46.4996 41.6684 46.2623 42.0903 45.8405C42.5121 45.4187 42.7493 44.8468 42.75 44.2503V41.3L45.7434 18.8495C45.7434 18.8462 45.7434 18.843 45.7442 18.8401C45.746 18.8249 45.7469 18.8095 45.7478 18.7941C45.7485 18.7828 45.7494 18.7717 45.7495 18.7604C45.7495 18.7571 45.7495 18.7539 45.7495 18.751V15.7503C45.7495 15.5514 45.6705 15.3606 45.5299 15.2199C45.3892 15.0793 45.1984 15.0003 44.9995 15.0003H30C29.8011 15.0003 29.6103 15.0793 29.4697 15.2199C29.329 15.3606 29.25 15.5514 29.25 15.7503V18.7503C29.25 18.7537 29.25 18.7568 29.25 18.7597C29.25 18.7709 29.251 18.7821 29.2517 18.7933C29.2526 18.8088 29.2536 18.8242 29.2553 18.8393C29.2553 18.8425 29.2553 18.8457 29.2561 18.8487L30.6388 29.2189C29.1309 29.1043 28.6648 28.6962 28.5283 28.5049C28.4797 28.4361 28.4472 28.3572 28.4332 28.2742C28.4192 28.1911 28.4242 28.106 28.4476 28.0251C28.4983 27.914 28.5197 27.7918 28.5098 27.6701C28.5 27.5484 28.4592 27.4312 28.3913 27.3297C28.3209 27.2252 28.2252 27.1401 28.113 27.0825C28.0009 27.0249 27.876 26.9966 27.75 27.0003C26.2578 27.0003 25.1077 27.2909 24.1603 27.7227L24.7434 23.3495C24.7478 23.3166 24.75 23.2834 24.75 23.2503C24.7486 21.4532 24.251 19.6913 23.3122 18.159C22.3733 16.6266 21.0297 15.3832 19.4292 14.5657C19.4932 14.429 19.5143 14.276 19.4898 14.127L18.7398 9.627C18.7106 9.45187 18.6202 9.29278 18.4848 9.17802C18.3493 9.06327 18.1775 9.00028 18 9.00028H17.25V6.00028H22.5C22.6989 6.00028 22.8897 5.92126 23.0303 5.78061C23.171 5.63996 23.25 5.44919 23.25 5.25028V2.25028C23.25 2.14759 23.2289 2.04599 23.188 1.95179C23.1472 1.85758 23.0874 1.77277 23.0124 1.70262C22.9374 1.63246 22.8488 1.57845 22.7521 1.54394C22.6554 1.50942 22.5526 1.49514 22.4501 1.50197L11.2001 2.25197C11.0516 2.26187 10.9093 2.31577 10.7915 2.40679C10.6737 2.49782 10.5856 2.62185 10.5385 2.76309L9.78853 5.01309C9.75095 5.12583 9.74069 5.24588 9.75861 5.36336C9.77653 5.48084 9.82211 5.59238 9.89159 5.68879C9.96107 5.7852 10.0525 5.86371 10.1582 5.91787C10.264 5.97203 10.3812 6.00027 10.5 6.00028H11.25V9.00028H10.5C10.3225 9.00028 10.1507 9.06327 10.0152 9.17802C9.87976 9.29278 9.7894 9.45187 9.76022 9.627L9.01022 14.127C8.9857 14.276 9.00681 14.429 9.07078 14.5657C7.47035 15.3832 6.12666 16.6266 5.18782 18.159C4.24897 19.6913 3.75142 21.4532 3.75 23.2503ZM34.5 45.0003H16.4032C16.23 45.0001 16.064 44.9312 15.9415 44.8088C15.819 44.6863 15.7502 44.5203 15.75 44.3471V36.6534C15.7502 36.4803 15.819 36.3142 15.9415 36.1918C16.064 36.0693 16.23 36.0004 16.4032 36.0003H34.5968C34.77 36.0004 34.9361 36.0693 35.0585 36.1918C35.181 36.3142 35.2498 36.4803 35.25 36.6534V44.3471C35.2498 44.5203 35.181 44.6863 35.0585 44.8088C34.9361 44.9312 34.77 45.0001 34.5968 45.0003H34.5ZM18 33.0003H33V34.5003H18V33.0003ZM41.25 44.2503C41.2498 44.4491 41.1707 44.6398 41.0301 44.7804C40.8895 44.921 40.6988 45 40.5 45.0003H36.6485C36.7158 44.7891 36.7501 44.5688 36.75 44.3471V42.0003H41.25V44.2503ZM41.3438 40.5003H36.75V36.6534C36.7494 36.0826 36.5223 35.5353 36.1186 35.1316C35.715 34.728 35.1677 34.5009 34.5968 34.5003H34.5V32.2503C34.5 32.2293 34.4986 32.2086 34.4969 32.188C34.4969 32.1851 34.4962 32.1798 34.4957 32.1751V32.1726C34.4393 31.681 34.2906 31.2045 34.0576 30.768C33.8697 30.4012 33.6023 30.0809 33.275 29.8305C32.9478 29.58 32.5688 29.4056 32.1656 29.32L30.8566 19.5003H44.1434L41.3438 40.5003ZM30.75 16.5003H44.25V18.0003H30.75V16.5003ZM27.2736 29.3274C27.9078 30.2716 29.3297 30.7503 31.5 30.7503C32.0625 30.7503 32.45 30.9724 32.7206 31.4494C32.73 31.4663 32.7394 31.4833 32.748 31.5003H21.4707C21.7908 31.255 22.0956 30.9975 22.3977 30.7418C23.6189 29.7084 24.7795 28.7262 26.9545 28.5341C27.0028 28.8184 27.1116 29.0889 27.2736 29.3274ZM11.8023 3.71512L21.75 3.05193V4.50028H11.5406L11.8023 3.71512ZM12.75 6.00028H15.75V9.00028H12.75V6.00028ZM10.6354 13.5003L11.1353 10.5003H17.3647L17.8646 13.5003H10.6354ZM13.5 15.0003H15C17.1789 15.0027 19.2685 15.866 20.8138 17.4021C22.359 18.9382 23.2347 21.0227 23.25 23.2015L22.5146 28.7159C22.1287 29.0047 21.7731 29.3052 21.4287 29.5966C20.2219 30.6182 19.1793 31.5003 17.25 31.5003C17.0511 31.5003 16.8603 31.5793 16.7197 31.7199C16.579 31.8606 16.5 32.0514 16.5 32.2503V34.5003H16.4032C15.8323 34.5009 15.285 34.728 14.8814 35.1316C14.4777 35.5353 14.2506 36.0826 14.25 36.6534V44.3471C14.2499 44.5688 14.2842 44.7891 14.3515 45.0003H8.81325C8.63164 44.9998 8.45635 44.9336 8.31971 44.814C8.18308 44.6943 8.09432 44.5293 8.06981 44.3494L5.25 23.2015C5.26533 21.0227 6.14099 18.9382 7.68624 17.4021C9.23149 15.866 11.3211 15.0027 13.5 15.0003Z" fill="white"/>
<path d="M25.5 37.5C24.9067 37.5 24.3266 37.6759 23.8333 38.0056C23.3399 38.3352 22.9554 38.8038 22.7284 39.352C22.5013 39.9001 22.4419 40.5033 22.5576 41.0853C22.6734 41.6672 22.9591 42.2018 23.3787 42.6213C23.7982 43.0409 24.3328 43.3266 24.9147 43.4424C25.4967 43.5581 26.0999 43.4987 26.6481 43.2717C27.1962 43.0446 27.6648 42.6601 27.9944 42.1667C28.3241 41.6734 28.5 41.0934 28.5 40.5C28.4991 39.7046 28.1828 38.9421 27.6203 38.3797C27.0579 37.8173 26.2954 37.5009 25.5 37.5ZM25.5 42C25.2033 42 24.9133 41.912 24.6667 41.7472C24.42 41.5824 24.2277 41.3481 24.1142 41.074C24.0007 40.7999 23.9709 40.4983 24.0288 40.2074C24.0867 39.9164 24.2296 39.6491 24.4393 39.4393C24.6491 39.2296 24.9164 39.0867 25.2074 39.0288C25.4983 38.9709 25.7999 39.0007 26.074 39.1142C26.3481 39.2277 26.5824 39.42 26.7472 39.6666C26.912 39.9133 27 40.2033 27 40.5C26.9995 40.8977 26.8414 41.2789 26.5602 41.5602C26.2789 41.8414 25.8977 41.9995 25.5 42Z" fill="white"/>
<path d="M37.5 27C39.6375 27 41.25 26.0328 41.25 24.75C41.25 23.4672 39.6375 22.5 37.5 22.5C35.3625 22.5 33.75 23.4672 33.75 24.75C33.75 26.0328 35.3625 27 37.5 27ZM37.5 24C38.952 24 39.75 24.5633 39.75 24.75C39.75 24.9367 38.952 25.5 37.5 25.5C36.048 25.5 35.25 24.9367 35.25 24.75C35.25 24.5633 36.048 24 37.5 24Z" fill="white"/>
<path d="M9.75 26.25H18.75C18.9489 26.25 19.1397 26.171 19.2803 26.0303C19.421 25.8897 19.5 25.6989 19.5 25.5V21C19.5 20.8011 19.421 20.6103 19.2803 20.4697C19.1397 20.329 18.9489 20.25 18.75 20.25H9.75C9.55109 20.25 9.36032 20.329 9.21967 20.4697C9.07902 20.6103 9 20.8011 9 21V25.5C9 25.6989 9.07902 25.8897 9.21967 26.0303C9.36032 26.171 9.55109 26.25 9.75 26.25ZM10.5 21.75H18V24.75H10.5V21.75Z" fill="white"/>
</svg>
