<svg width="48" height="48" viewBox="0 0 48 48" fill="none" xmlns="http://www.w3.org/2000/svg">
<g clip-path="url(#clip0_36_149)">
<path d="M45.9884 31.7643L43.4795 34.2731C42.4196 35.3303 40.7042 35.3303 39.6443 34.2731C37.9332 32.5609 35.158 32.5602 33.4459 34.2713C33.4453 34.2719 33.4447 34.2725 33.4441 34.2731C32.371 35.2974 30.6821 35.2974 29.6089 34.2731C27.8978 32.5609 25.1226 32.5602 23.4105 34.2713C23.4099 34.2719 23.4094 34.2725 23.4087 34.2731C22.3356 35.2974 20.6467 35.2974 19.5735 34.2731C17.8624 32.5609 15.0872 32.5602 13.3751 34.2713C13.3745 34.2719 13.374 34.2725 13.3733 34.2731C12.3135 35.3303 10.598 35.3303 9.53815 34.2731C7.82701 32.5609 5.05181 32.5602 3.33973 34.2713C3.3391 34.2719 3.33858 34.2725 3.33795 34.2731L0.829102 36.7819L2.0116 37.9644L4.52045 35.4556C5.59361 34.4313 7.28248 34.4313 8.35564 35.4556C10.0689 37.1652 12.8426 37.1652 14.5558 35.4556C15.629 34.4313 17.3179 34.4313 18.391 35.4556C20.1043 37.1652 22.878 37.1652 24.5912 35.4556C25.6644 34.4313 27.3533 34.4313 28.4264 35.4556C30.1397 37.1652 32.9134 37.1652 34.6266 35.4556C35.6998 34.4313 37.3887 34.4313 38.4618 35.4556C40.1751 37.1648 42.9487 37.1648 44.662 35.4556L47.1709 32.9468L45.9884 31.7643Z" fill="white"/>
<path d="M45.9884 36.7819L43.4795 39.2907C42.4194 40.3474 40.7044 40.3474 39.6443 39.2907C37.9332 37.5786 35.158 37.5778 33.4459 39.289C33.4453 39.2896 33.4447 39.2901 33.4441 39.2907C32.371 40.3151 30.6821 40.3151 29.6089 39.2907C27.8978 37.5786 25.1226 37.5778 23.4105 39.289C23.4099 39.2896 23.4094 39.2901 23.4087 39.2907C22.3356 40.3151 20.6467 40.3151 19.5735 39.2907C17.8624 37.5786 15.0872 37.5778 13.3751 39.289C13.3745 39.2896 13.374 39.2901 13.3733 39.2907C12.3132 40.3474 10.5982 40.3474 9.53815 39.2907C7.82701 37.5786 5.05181 37.5778 3.33973 39.289C3.3391 39.2896 3.33858 39.2901 3.33795 39.2907L0.829102 41.7996L2.0116 42.9821L4.52045 40.4732C5.59361 39.4489 7.28248 39.4489 8.35564 40.4732C10.0689 42.1828 12.8426 42.1828 14.5558 40.4732C15.629 39.4489 17.3179 39.4489 18.391 40.4732C20.1043 42.1828 22.878 42.1828 24.5912 40.4732C25.6644 39.4489 27.3533 39.4489 28.4264 40.4732C30.1397 42.1828 32.9134 42.1828 34.6266 40.4732C35.6998 39.4489 37.3887 39.4489 38.4618 40.4732C40.1751 42.1824 42.9487 42.1824 44.662 40.4732L47.1709 37.9644L45.9884 36.7819Z" fill="white"/>
<path d="M45.9884 41.7995L43.4795 44.3084C42.4196 45.3655 40.7042 45.3655 39.6443 44.3084C37.9332 42.5962 35.158 42.5954 33.4459 44.3066C33.4453 44.3072 33.4447 44.3077 33.4441 44.3084C32.371 45.3327 30.6821 45.3327 29.6089 44.3084C27.8978 42.5962 25.1226 42.5954 23.4105 44.3066C23.4099 44.3072 23.4094 44.3077 23.4087 44.3084C22.3356 45.3327 20.6467 45.3327 19.5735 44.3084C17.8624 42.5962 15.0872 42.5954 13.3751 44.3066C13.3745 44.3072 13.374 44.3077 13.3733 44.3084C12.3135 45.3655 10.598 45.3655 9.53815 44.3084C7.82701 42.5962 5.05181 42.5954 3.33973 44.3066C3.3391 44.3072 3.33858 44.3077 3.33795 44.3084L0.829102 46.8172L2.0116 47.9997L4.52045 45.4909C5.59361 44.4665 7.28248 44.4665 8.35564 45.4909C10.0689 47.2004 12.8426 47.2004 14.5558 45.4909C15.629 44.4665 17.3179 44.4665 18.391 45.4909C20.1043 47.2004 22.878 47.2004 24.5912 45.4909C25.6644 44.4665 27.3533 44.4665 28.4264 45.4909C30.1397 47.2004 32.9134 47.2004 34.6266 45.4909C35.6998 44.4665 37.3887 44.4665 38.4618 45.4909C40.1751 47.2 42.9487 47.2 44.662 45.4909L47.1709 42.982L45.9884 41.7995Z" fill="white"/>
<path d="M35.4629 24.2385L24.2065 12.9821C23.8218 12.5974 23.8217 11.9737 24.2065 11.5889L30.8642 4.93207C31.9965 3.7963 31.9965 1.95836 30.8642 0.822579C29.7136 -0.274519 27.9043 -0.274519 26.7538 0.822579L19.9858 7.58894C17.3958 10.1834 17.3958 14.3851 19.9858 16.9796L21.6776 18.6714L9.19189 31.1579L10.3744 32.3404L23.4522 19.2626C23.7786 18.936 23.7786 18.4067 23.4522 18.0801L21.1691 15.7971C19.2326 13.8558 19.2326 10.7135 21.1691 8.77228L27.9372 2.00508C28.4251 1.53938 29.1928 1.53938 29.6808 2.00508C30.1617 2.4872 30.1617 3.26745 29.6808 3.74957L23.024 10.4064C21.9862 11.4437 21.9858 13.126 23.0232 14.1638C23.0235 14.1641 23.0238 14.1644 23.024 14.1646L34.2804 25.421L41.8069 32.9475L42.9894 31.765L35.4629 24.2385Z" fill="white"/>
<path d="M35.7081 9.77631C32.9369 9.77631 30.6904 12.0228 30.6904 14.794C30.6931 17.5641 32.938 19.809 35.7081 19.8117C38.4794 19.8117 40.7258 17.5652 40.7258 14.794C40.7258 12.0229 38.4793 9.77631 35.7081 9.77631ZM35.7081 18.1391C33.8607 18.1391 32.363 16.6415 32.363 14.794C32.363 12.9465 33.8607 11.4489 35.7081 11.4489C37.5556 11.4489 39.0533 12.9465 39.0533 14.794C39.0533 16.6415 37.5556 18.1391 35.7081 18.1391Z" fill="white"/>
<path d="M32.5359 27.165C32.2093 26.8385 31.6799 26.8385 31.3534 27.165L27.5901 30.9283L28.7726 32.1108L31.9446 28.9387L35.1166 32.1108L36.2991 30.9283L32.5359 27.165Z" fill="white"/>
</g>
<defs>
<clipPath id="clip0_36_149">
<rect width="48" height="48" fill="white"/>
</clipPath>
</defs>
</svg>
