<svg width="48" height="48" viewBox="0 0 48 48" fill="none" xmlns="http://www.w3.org/2000/svg">
<g clip-path="url(#clip0_36_122)">
<path d="M23.9065 43.7342C25.6151 43.7342 27.0002 42.3491 27.0002 40.6405C27.0002 38.9319 25.6151 37.5468 23.9065 37.5468C22.1979 37.5468 20.8127 38.9319 20.8127 40.6405C20.8127 42.3491 22.1979 43.7342 23.9065 43.7342Z" fill="white"/>
<path d="M47.4966 14.5185C41.3345 7.90696 32.9901 4.26572 23.9996 4.26562C15.01 4.26572 6.66558 7.90696 0.503315 14.5185C-0.202622 15.276 -0.160903 16.4625 0.596596 17.1685C1.35419 17.8744 2.54059 17.8328 3.24662 17.0752C8.69161 11.2331 16.0618 8.01571 24.0003 8.01562C31.9381 8.01571 39.3083 11.2331 44.7533 17.0752C45.1226 17.4714 45.6233 17.6718 46.1254 17.6718C46.5831 17.6718 47.042 17.5052 47.4034 17.1685C48.1608 16.4624 48.2027 15.276 47.4966 14.5185Z" fill="white"/>
<path d="M40.6118 22.2617C36.0568 17.6722 30.1572 15.1448 23.9997 15.145C17.8408 15.1451 11.9412 17.6726 7.38754 22.2618C6.65816 22.9969 6.66276 24.1841 7.39785 24.9135C8.13294 25.6428 9.3201 25.6382 10.0495 24.9032C13.8937 21.0289 18.848 18.8951 23.9997 18.895C29.1502 18.8948 34.1045 21.0287 37.9501 24.9033C38.3166 25.2726 38.7987 25.4575 39.2809 25.4575C39.7583 25.4575 40.2361 25.2762 40.6019 24.9133C41.3368 24.1838 41.3413 22.9967 40.6118 22.2617Z" fill="white"/>
<path d="M33.1078 30.0272C30.6685 27.6105 27.1719 26.1093 23.9823 26.1093C23.982 26.1093 23.9813 26.1093 23.9809 26.1093H23.8458C23.8453 26.1093 23.845 26.1093 23.8444 26.1093C20.6548 26.1093 17.1579 27.6106 14.7186 30.0272C13.9831 30.7561 13.9775 31.9432 14.7063 32.6789C15.073 33.0489 15.5556 33.2342 16.0383 33.2342C16.5153 33.2342 16.9923 33.0534 17.3579 32.6912C19.0944 30.9707 21.6404 29.8592 23.8446 29.8592C23.8449 29.8592 23.8453 29.8592 23.8456 29.8592H23.9812C23.9816 29.8592 23.9817 29.8592 23.9821 29.8592C26.186 29.8592 28.7322 30.9708 30.4685 32.6912C31.2041 33.42 32.3914 33.4147 33.1201 32.6789C33.849 31.9433 33.8435 30.7561 33.1078 30.0272Z" fill="white"/>
</g>
<defs>
<clipPath id="clip0_36_122">
<rect width="48" height="48" fill="white"/>
</clipPath>
</defs>
</svg>
